<svg width="29" height="26" viewBox="0 0 29 26" fill="none" xmlns="http://www.w3.org/2000/svg">
<path fill-rule="evenodd" clip-rule="evenodd" d="M22.6135 4.56282C22.0747 3.78744 20.6339 2.69763 18.3001 3.16774C16.9386 3.44096 16.1251 4.11407 15.6077 5.0024C15.0567 5.94873 14.7895 7.23543 14.7895 8.73276C14.7895 9.13757 14.6287 9.5258 14.3425 9.81204C14.0563 10.0983 13.668 10.2591 13.2632 10.2591C9.6519 10.2591 6.21459 9.18608 3.32219 6.28452C3.10382 7.46178 3.01781 8.65977 3.06577 9.85615C3.14666 11.5137 3.54198 13.1759 4.48068 14.6C5.40411 15.9996 6.92281 17.2818 9.46264 18.0877C9.71151 18.1666 9.93597 18.3081 10.1146 18.4985C10.2931 18.689 10.4199 18.9221 10.4827 19.1755C10.5455 19.429 10.5422 19.6943 10.4732 19.9461C10.4041 20.1979 10.2717 20.4278 10.0884 20.6138C9.27489 21.4482 8.35286 22.1695 7.34714 22.7583C8.96505 22.9262 10.525 22.9384 11.9719 22.8071C14.9025 22.5415 17.2363 21.7036 18.6954 20.5176C21.768 18.0266 23.4118 14.3115 23.1065 8.08712C23.0547 7.06448 24.0422 5.96094 24.5184 5.12298C23.7995 5.2573 23.0791 5.23288 22.6135 4.56282ZM2.43081 1.50251C2.70716 1.4704 2.98703 1.51442 3.24017 1.62983C3.49331 1.74524 3.71009 1.92763 3.86709 2.15731C6.11996 5.45267 8.82463 6.82332 11.8269 7.13469C11.9735 5.85104 12.3199 4.58266 12.9717 3.46538C13.9272 1.8261 15.481 0.620291 17.7003 0.174601C20.7682 -0.442038 23.1035 0.669134 24.4574 2.0291L27.1925 1.51778C27.4788 1.46415 27.7744 1.49351 28.0444 1.60241C28.3145 1.7113 28.5478 1.89519 28.7168 2.13235C28.8857 2.36952 28.9833 2.65007 28.998 2.9409C29.0127 3.23173 28.944 3.5207 28.7998 3.7737L26.1745 8.38629C26.4141 15.0426 24.5642 19.6888 20.6201 22.8895C18.5291 24.5868 15.5344 25.5499 12.2482 25.8476C8.93605 26.1467 5.19195 25.785 1.47074 24.6982C1.1528 24.6055 0.873643 24.4118 0.67541 24.1465C0.477178 23.8812 0.370624 23.5586 0.37183 23.2274C0.373037 22.8962 0.481937 22.5744 0.682097 22.3105C0.882257 22.0466 1.16281 21.855 1.48143 21.7646C3.35272 21.2319 4.77831 20.7725 6.06501 19.9681C4.23494 18.9974 2.88718 17.7275 1.93322 16.2805C0.608365 14.2688 0.116885 12.0251 0.0191994 10.0027C-0.0784861 7.98028 0.213044 6.10594 0.521364 4.75513C0.696892 3.98433 0.901421 3.21201 1.18379 2.47326C1.2834 2.21285 1.45242 1.9847 1.67253 1.81357C1.89264 1.64243 2.15388 1.53486 2.43081 1.50251Z" fill="#1A2E35"/>
</svg>
